<svg width="18" height="20" viewBox="0 0 18 20" fill="none" xmlns="http://www.w3.org/2000/svg">
<path fill-rule="evenodd" clip-rule="evenodd" d="M2.99961 9.00547V6.60547C2.99961 3.29176 5.6859 0.605469 8.99961 0.605469C12.3133 0.605469 14.9996 3.29176 14.9996 6.60547V9.00547C16.3251 9.00547 17.3996 10.08 17.3996 11.4055V17.4055C17.3996 18.731 16.3251 19.8055 14.9996 19.8055H2.99961C1.67413 19.8055 0.599609 18.731 0.599609 17.4055V11.4055C0.599609 10.08 1.67413 9.00547 2.99961 9.00547ZM12.5996 6.60547V9.00547H5.39961V6.60547C5.39961 4.61724 7.01138 3.00547 8.99961 3.00547C10.9878 3.00547 12.5996 4.61724 12.5996 6.60547Z" fill="#6C7E8E"/>
</svg>
