<svg width="20" height="17" viewBox="0 0 20 17" fill="none" xmlns="http://www.w3.org/2000/svg">
<path fill-rule="evenodd" clip-rule="evenodd" d="M3.70808 0.499802C3.31756 0.109278 2.68439 0.109278 2.29387 0.499802C1.90335 0.890327 1.90335 1.52349 2.29387 1.91402L16.2939 15.914C16.6844 16.3045 17.3176 16.3045 17.7081 15.914C18.0986 15.5235 18.0986 14.8903 17.7081 14.4998L16.2349 13.0266C17.7724 11.7993 18.94 10.128 19.5434 8.20687C18.2691 4.14979 14.4788 1.20691 10.0012 1.20691C8.37762 1.20691 6.84442 1.59383 5.48877 2.28048L3.70808 0.499802ZM7.9691 4.76082L9.48299 6.27471C9.64827 6.23049 9.822 6.20691 10.0012 6.20691C11.1058 6.20691 12.0012 7.10234 12.0012 8.20691C12.0012 8.38614 11.9777 8.55987 11.9334 8.72515L13.4473 10.239C13.7993 9.64349 14.0012 8.94878 14.0012 8.20691C14.0012 5.99777 12.2104 4.20691 10.0012 4.20691C9.25935 4.20691 8.56465 4.40887 7.9691 4.76082Z" fill="#6C7E8E"/>
<path d="M12.4551 14.9036L9.75063 12.1992C7.74111 12.075 6.13317 10.467 6.00895 8.45751L2.3359 4.78445C1.50161 5.77914 0.857345 6.9386 0.458984 8.20695C1.73326 12.264 5.52354 15.2069 10.0012 15.2069C10.8478 15.2069 11.6699 15.1017 12.4551 14.9036Z" fill="#6C7E8E"/>
</svg>
